<mxfile host="app.diagrams.net" modified="2024-05-13T13:57:38.284Z" agent="Mozilla/5.0 (X11; Linux x86_64) AppleWebKit/537.36 (KHTML, like Gecko) Chrome/124.0.0.0 Safari/537.36" etag="aVpQORGGBXNsC6QWZ_9R" version="24.4.0" type="github">
  <diagram name="Page-1" id="qbcw0_QGkUB2L4nBPmKO">
    <mxGraphModel dx="1157" dy="645" grid="1" gridSize="10" guides="1" tooltips="1" connect="1" arrows="1" fold="1" page="1" pageScale="1" pageWidth="850" pageHeight="1100" background="none" math="0" shadow="0">
      <root>
        <mxCell id="0" />
        <mxCell id="1" parent="0" />
        <mxCell id="e39YhttfQh6g9qLsBfuA-2" value="&lt;span id=&quot;docs-internal-guid-f4f1dec3-7fff-86c7-fe9e-d08dac1e3e18&quot;&gt;&lt;span style=&quot;font-size: 11pt; font-family: Arial, sans-serif; background-color: transparent; font-variant-numeric: normal; font-variant-east-asian: normal; font-variant-alternates: normal; font-variant-position: normal; vertical-align: baseline; white-space-collapse: preserve;&quot;&gt;Enhancing Cybersecurity in Critical Infrastructure &lt;/span&gt;&lt;/span&gt;" style="whiteSpace=wrap;html=1;gradientDirection=east;rounded=1;" vertex="1" parent="1">
          <mxGeometry x="380" y="30" width="140" height="70" as="geometry" />
        </mxCell>
      </root>
    </mxGraphModel>
  </diagram>
</mxfile>
